<svg xmlns="http://www.w3.org/2000/svg" viewBox="0 0 600 500" width="100%" height="100%">
    <defs>
      <linearGradient id="bgClipsStudio" x1="0%" y1="0%" x2="0%" y2="100%">
        <stop offset="0%" stop-color="#F8FAFC"/>
        <stop offset="100%" stop-color="#E2E8F0"/>
      </linearGradient>
      <radialGradient id="clipShadow" cx="50%" cy="50%" r="50%">
        <stop offset="0%" stop-color="#64748B" stop-opacity="0.3"/>
        <stop offset="100%" stop-color="#64748B" stop-opacity="0"/>
      </radialGradient>
      <linearGradient id="matteBlackClip" x1="0%" y1="0%" x2="100%" y2="100%">
        <stop offset="0%" stop-color="#334155"/>
        <stop offset="100%" stop-color="#0F172A"/>
      </linearGradient>
      <linearGradient id="matteWhiteClip" x1="0%" y1="0%" x2="100%" y2="100%">
        <stop offset="0%" stop-color="#FFFFFF"/>
        <stop offset="100%" stop-color="#CBD5E1"/>
      </linearGradient>
    </defs>
    <rect width="600" height="500" fill="url(#bgClipsStudio)"/>
    <ellipse cx="300" cy="380" rx="190" ry="24" fill="url(#clipShadow)"/>

    <!-- Routed White USB Cables running diagonally -->
    <path d="M80 180 Q 250 320 520 220" fill="none" stroke="#CBD5E1" stroke-width="16" stroke-linecap="round"/>
    <path d="M80 180 Q 250 320 520 220" fill="none" stroke="#FFFFFF" stroke-width="12" stroke-linecap="round"/>
    
    <path d="M120 140 Q 280 290 540 180" fill="none" stroke="#CBD5E1" stroke-width="16" stroke-linecap="round"/>
    <path d="M120 140 Q 280 290 540 180" fill="none" stroke="#FFFFFF" stroke-width="12" stroke-linecap="round"/>

    <!-- Set of 3D Printed Clips Clamped Over Cables -->
    <!-- Clip 1: White Matte Clip (Left) -->
    <g transform="translate(190, 220)">
      <rect x="0" y="0" width="65" height="70" rx="14" fill="url(#matteWhiteClip)" stroke="#94A3B8" stroke-width="1.5"/>
      <circle cx="32" cy="30" r="14" fill="#CBD5E1"/>
      <path d="M25 0 L40 0 L40 18 L25 18 Z" fill="#E2E8F0"/>
    </g>

    <!-- Clip 2: Black Matte Clip (Center) -->
    <g transform="translate(280, 240)">
      <rect x="0" y="0" width="70" height="75" rx="14" fill="url(#matteBlackClip)" stroke="#475569" stroke-width="1.5"/>
      <circle cx="35" cy="32" r="14" fill="#020617"/>
      <path d="M28 0 L42 0 L42 18 L28 18 Z" fill="#0F172A"/>
    </g>

    <!-- Clip 3: White Matte Clip (Right) -->
    <g transform="translate(370, 200)">
      <rect x="0" y="0" width="65" height="70" rx="14" fill="url(#matteWhiteClip)" stroke="#94A3B8" stroke-width="1.5"/>
      <circle cx="32" cy="30" r="14" fill="#CBD5E1"/>
      <path d="M25 0 L40 0 L40 18 L25 18 Z" fill="#E2E8F0"/>
    </g>
  </svg>