<svg xmlns="http://www.w3.org/2000/svg" viewBox="0 0 600 600" width="100%" height="100%">
    <defs>
      <linearGradient id="bgPrp" x1="0%" y1="0%" x2="100%" y2="100%">
        <stop offset="0%" stop-color="#1E1B4B"/>
        <stop offset="100%" stop-color="#020617"/>
      </linearGradient>
      <linearGradient id="bladeRed" x1="0%" y1="0%" x2="100%" y2="100%">
        <stop offset="0%" stop-color="#EF4444"/>
        <stop offset="100%" stop-color="#991B1B"/>
      </linearGradient>
    </defs>
    <rect width="600" height="600" fill="url(#bgPrp)"/>
    <circle cx="300" cy="300" r="230" fill="#EF4444" fill-opacity="0.15"/>
    <ellipse cx="300" cy="510" rx="180" ry="24" fill="#000" fill-opacity="0.6"/>

    <!-- 5-inch Tri-Blade Aerodynamic Propellers -->
    <g transform="translate(300, 280)">
      <!-- 3 Blades at 120 degree angles -->
      
        <g transform="rotate(0)">
          <!-- Aerodynamic curved airfoil blade -->
          <path d="M 0,-15 C 30,-50, 45,-120, 20,-170 C 0,-185, -20,-160, -20,-120 C -15,-60, -10,-30, 0,-15 Z" fill="url(#bladeRed)" stroke="#FCA5A5" stroke-width="2"/>
          <path d="M 5,-40 Q 20,-100 10,-150" stroke="#FEE2E2" stroke-width="2" opacity="0.6" fill="none"/>
        </g>
      
        <g transform="rotate(120)">
          <!-- Aerodynamic curved airfoil blade -->
          <path d="M 0,-15 C 30,-50, 45,-120, 20,-170 C 0,-185, -20,-160, -20,-120 C -15,-60, -10,-30, 0,-15 Z" fill="url(#bladeRed)" stroke="#FCA5A5" stroke-width="2"/>
          <path d="M 5,-40 Q 20,-100 10,-150" stroke="#FEE2E2" stroke-width="2" opacity="0.6" fill="none"/>
        </g>
      
        <g transform="rotate(240)">
          <!-- Aerodynamic curved airfoil blade -->
          <path d="M 0,-15 C 30,-50, 45,-120, 20,-170 C 0,-185, -20,-160, -20,-120 C -15,-60, -10,-30, 0,-15 Z" fill="url(#bladeRed)" stroke="#FCA5A5" stroke-width="2"/>
          <path d="M 5,-40 Q 20,-100 10,-150" stroke="#FEE2E2" stroke-width="2" opacity="0.6" fill="none"/>
        </g>
      
      <!-- Propeller Center Hub -->
      <circle cx="0" cy="0" r="28" fill="#1E293B" stroke="#F8FAFC" stroke-width="2"/>
      <circle cx="0" cy="0" r="12" fill="#020617" stroke="#EF4444" stroke-width="2"/>
    </g>
    <rect x="30" y="30" rx="8" width="160" height="26" fill="#EF4444" fill-opacity="0.2" stroke="#F87171" stroke-width="1"/>
    <text x="110" y="47" fill="#F87171" font-family="system-ui, sans-serif" font-size="11" font-weight="700" text-anchor="middle" letter-spacing="1">5-INCH TRI-BLADE 4-PR</text>
  </svg>